<svg id="Capa_1" data-name="Capa 1" xmlns="http://www.w3.org/2000/svg" viewBox="0 0 329.32 74.13"><defs><style>.cls-1{fill:#0854a1;}.cls-2{fill:#eb6515;}.cls-3{fill:#ea7a1d;}.cls-4{fill:#f49824;}.cls-5{fill:#1b2f4a;}</style></defs><title>Mesa de trabajo 22</title><path class="cls-1" d="M43.9,11.08,63.28,25.42a8.47,8.47,0,0,1,3.52,6.83V36L68,35.33c4.1-2.79,7.12-5.1,7.08-9.45,0-.05,0-.09,0-.14s-.07-.29-.1-.43a11.32,11.32,0,0,0-2.14-2.76,13.26,13.26,0,0,0-1.14-1L45.81,2.44A12.44,12.44,0,0,0,43.09.93,12.73,12.73,0,0,0,40.51.18a10.17,10.17,0,0,1-.43,3.37,14.68,14.68,0,0,1-1.63,3.61l0,0a14.37,14.37,0,0,1-1.61,2.12,10.4,10.4,0,0,1,1.37-.1A9.68,9.68,0,0,1,43.9,11.08Z"/><path class="cls-2" d="M64.74,61.68a9,9,0,0,1-2.6,2.5c2.51,2.36,4.8,4,7.72,3.95a8.65,8.65,0,0,0,2-.27A7.16,7.16,0,0,0,76,65.2c0-.11,0-.22,0-.32h0c0,.1,0,.2,0,.31s0,0,0,0a10.74,10.74,0,0,0,.3-2.49v-32a9.46,9.46,0,0,0-.06-1.07c0,.21,0,.42-.07.63-.55,3.48-3.33,5.59-7,8.06L66.89,39.7l-.09,0V56.23A8.3,8.3,0,0,1,64.74,61.68Z"/><path class="cls-1" d="M7.1,27.09c.26.21.48.43.71.65a14,14,0,0,1,1.76,2,8.84,8.84,0,0,1,1.33-2.06,9.37,9.37,0,0,1,1.21-1.14,9.78,9.78,0,0,1,.9-.79L32.39,11.13c.3-.22.61-.42.93-.61.15-.19.3-.38.44-.58A21.26,21.26,0,0,0,36.4,4.88,15.07,15.07,0,0,0,37.3,0a12.84,12.84,0,0,0-6.84,2.51L4.6,22a12.35,12.35,0,0,0-2.24,2.21c-.06.07-.11.15-.16.22A12.46,12.46,0,0,1,6,26.27C6.37,26.52,6.73,26.79,7.1,27.09Z"/><path class="cls-3" d="M74.74,68.38c.05-.08.11-.16.16-.25a7.09,7.09,0,0,1-4.16,2.67,8.21,8.21,0,0,1-2,.27A7.1,7.1,0,0,1,67,70.9c-2.66-.57-4.87-2.58-7.44-5.12l-.34-.39a9.64,9.64,0,0,1-2.29.29H18.08a9.61,9.61,0,0,1-4.93-1.35c-.24.26-.5.52-.72.78C10.13,67.76,9,70,9,71.79a3.38,3.38,0,0,0,.45,2,13.16,13.16,0,0,0,2.29.31h.13a15.16,15.16,0,0,0,1.52-.2,10.92,10.92,0,0,1-1.52.2h-.09c.17,0,.34,0,.51,0H64.12a12.81,12.81,0,0,0,6.33-1.65,12,12,0,0,0,1.71-1.17,12.26,12.26,0,0,0,1.63-1.59c.11-.14.22-.27.32-.41l.25-.33C74.49,68.78,74.62,68.58,74.74,68.38Z"/><path class="cls-4" d="M9.52,63.57c.37-.42.79-.86,1.22-1.3-.11-.14-.22-.27-.32-.41A8.26,8.26,0,0,1,8.81,57V33.19c0-.08,0-.16,0-.24a15.55,15.55,0,0,0-2.14-2.16l-.13-.11c-.43-.35-.85-.67-1.27-1A14.54,14.54,0,0,0,.59,27.51,11,11,0,0,0,0,31.05V62.67a10.88,10.88,0,0,0,1.28,5.09,12.21,12.21,0,0,0,4,4.36h0L5.5,72a1.59,1.59,0,0,0-.07.2l.16.08.82.45.77.37A3.23,3.23,0,0,1,6,70.26C6.13,68.5,7.22,66.23,9.52,63.57Z"/><path class="cls-5" d="M146.34,12.85a1.54,1.54,0,0,1,.41,1.13V48.31a1.42,1.42,0,0,1-1.54,1.53h-5a1.42,1.42,0,0,1-1.54-1.53v-13H121.17v13a1.42,1.42,0,0,1-1.54,1.53h-5a1.42,1.42,0,0,1-1.54-1.53V14a1.42,1.42,0,0,1,1.54-1.54h5a1.55,1.55,0,0,1,1.13.41,1.54,1.54,0,0,1,.41,1.13V28.3h17.54V14a1.54,1.54,0,0,1,.41-1.13,1.55,1.55,0,0,1,1.13-.41h5A1.55,1.55,0,0,1,146.34,12.85Z"/><path class="cls-5" d="M163.38,48A20.18,20.18,0,0,1,156,40.84a18.79,18.79,0,0,1,0-19.39,19.53,19.53,0,0,1,7.34-7.12,20.09,20.09,0,0,1,10.08-2.61,20.45,20.45,0,0,1,10.11,2.59,19.8,19.8,0,0,1,7.39,7.09,18.79,18.79,0,0,1,0,19.44A19.66,19.66,0,0,1,183.53,48a20.36,20.36,0,0,1-10.13,2.61A20,20,0,0,1,163.38,48Zm4-27.22A12.65,12.65,0,0,0,163,25.18a11.61,11.61,0,0,0,0,11.9,12.56,12.56,0,0,0,4.4,4.47,11.3,11.3,0,0,0,6,1.69,11.49,11.49,0,0,0,6-1.69,12.39,12.39,0,0,0,4.45-4.5,11.81,11.81,0,0,0,0-11.87,12.69,12.69,0,0,0-4.38-4.45,12.1,12.1,0,0,0-6.09-1.64A11.52,11.52,0,0,0,167.42,20.73Z"/><path class="cls-5" d="M238.54,12.8a.73.73,0,0,1,.64.36,1.81,1.81,0,0,1,.23,1V48.31a1.42,1.42,0,0,1-1.54,1.53h-5.06a1.42,1.42,0,0,1-1.54-1.53V32L220.88,44a1.3,1.3,0,0,1-1.07.61,1.52,1.52,0,0,1-1.07-.61L208.35,32V48.31a1.42,1.42,0,0,1-1.54,1.53h-5.06a1.42,1.42,0,0,1-1.54-1.53V14.13a1.81,1.81,0,0,1,.23-1,.73.73,0,0,1,.64-.36,1.4,1.4,0,0,1,1,.61l17.7,20,17.7-20A1.53,1.53,0,0,1,238.54,12.8Z"/><path class="cls-5" d="M256,27.79h16.38a1.53,1.53,0,0,1,1.12.41,1.5,1.5,0,0,1,.41,1.13v4a1.47,1.47,0,0,1-.41,1.12,1.49,1.49,0,0,1-1.12.41H256v8h18.73a1.42,1.42,0,0,1,1.54,1.54v3.94a1.42,1.42,0,0,1-1.54,1.53H249.49A1.42,1.42,0,0,1,248,48.31V14a1.42,1.42,0,0,1,1.54-1.54h25.27a1.55,1.55,0,0,1,1.13.41A1.54,1.54,0,0,1,276.3,14v3.94a1.53,1.53,0,0,1-.41,1.12,1.55,1.55,0,0,1-1.13.41H256Z"/><path class="cls-5" d="M289.42,14.73a.69.69,0,0,1,.52-.19h9.11a.63.63,0,0,1,.71.71,6.73,6.73,0,0,1,0,.69l-.05,1a7.71,7.71,0,0,1-1.45,3.9A8.94,8.94,0,0,1,295,23.57a10.08,10.08,0,0,1-4.35,1,9.41,9.41,0,0,1-4.67-1.2,9.21,9.21,0,0,1-3.44-3.29,8.7,8.7,0,0,1,0-9A9.16,9.16,0,0,1,286,7.74a9.34,9.34,0,0,1,4.69-1.21,9.53,9.53,0,0,1,7.41,3.56.72.72,0,0,1,.19.45.65.65,0,0,1-.38.55l-2,1.17a1.05,1.05,0,0,1-.4.11.81.81,0,0,1-.6-.31,6.94,6.94,0,0,0-1.94-1.54,4.86,4.86,0,0,0-2.26-.57,5.43,5.43,0,0,0-2.8.76,6,6,0,0,0-2.08,2.07,5.39,5.39,0,0,0,0,5.52,5.68,5.68,0,0,0,2.07,2.06,5.31,5.31,0,0,0,2.81.78,5.66,5.66,0,0,0,2.16-.43,6,6,0,0,0,1.85-1.2,3.74,3.74,0,0,0,1.05-1.67h-5.78a.66.66,0,0,1-.71-.71V15.25A.68.68,0,0,1,289.42,14.73Z"/><path class="cls-5" d="M290.66,25a10,10,0,0,1-4.92-1.26,9.77,9.77,0,0,1-3.61-3.47,9.19,9.19,0,0,1,0-9.54,9.78,9.78,0,0,1,3.61-3.47A9.92,9.92,0,0,1,290.66,6,9.77,9.77,0,0,1,295,7a10,10,0,0,1,3.45,2.75,1.2,1.2,0,0,1,.3.76,1.11,1.11,0,0,1-.61,1l-2,1.18a1.17,1.17,0,0,1-1.61-.29A6.36,6.36,0,0,0,292.68,11a4.65,4.65,0,0,0-4.56.18A5.4,5.4,0,0,0,286.21,13a5,5,0,0,0-.69,2.51,4.9,4.9,0,0,0,.7,2.51,5.14,5.14,0,0,0,1.88,1.88,5,5,0,0,0,4.53.31,5.27,5.27,0,0,0,1.7-1.09,3.92,3.92,0,0,0,.64-.81h-5a1.16,1.16,0,0,1-1.21-1.21V15.25a1.19,1.19,0,0,1,.34-.88,1.2,1.2,0,0,1,.87-.33h9.11a1.12,1.12,0,0,1,1.21,1.19,6.75,6.75,0,0,1,0,.71l-.05,1a8.25,8.25,0,0,1-1.55,4.17A9.31,9.31,0,0,1,295.23,24,10.69,10.69,0,0,1,290.66,25Zm0-18a8.9,8.9,0,0,0-4.44,1.14A8.74,8.74,0,0,0,283,11.29a8.18,8.18,0,0,0,0,8.5,8.85,8.85,0,0,0,3.25,3.12,9.45,9.45,0,0,0,8.56.21,8.38,8.38,0,0,0,3.09-2.58,7.23,7.23,0,0,0,1.36-3.65l.05-1a5.85,5.85,0,0,0,0-.62c0-.25-.05-.25-.21-.25h-9.11a.25.25,0,0,0-.17,0,.32.32,0,0,0,0,.17v1.88a.32.32,0,0,0,0,.17.25.25,0,0,0,.17,0h6.45l-.19.64A4.24,4.24,0,0,1,295,19.86a6.3,6.3,0,0,1-2,1.31,6,6,0,0,1-5.42-.38,6.3,6.3,0,0,1-2.24-2.23,5.89,5.89,0,0,1,0-6,6.41,6.41,0,0,1,2.26-2.25,5.66,5.66,0,0,1,5.54-.2,7.16,7.16,0,0,1,2.09,1.65.37.37,0,0,0,.22.14.52.52,0,0,0,.18-.06l2-1.15c.11-.07.13-.12.13-.12h0a.39.39,0,0,0-.08-.14,9,9,0,0,0-7-3.37Z"/><path class="cls-5" d="M314.26,9.9a.69.69,0,0,1-.52.19h-4.33V23.5a.66.66,0,0,1-.71.71h-2.35a.7.7,0,0,1-.53-.19.74.74,0,0,1-.19-.52V10.09h-4.35a.66.66,0,0,1-.71-.71V7.55a.68.68,0,0,1,.19-.52.69.69,0,0,1,.52-.19h12.46a.69.69,0,0,1,.52.19.68.68,0,0,1,.19.52V9.38A.69.69,0,0,1,314.26,9.9Z"/><path class="cls-5" d="M308.7,24.71h-2.35a1.17,1.17,0,0,1-.88-.34,1.18,1.18,0,0,1-.34-.87V10.59h-3.85a1.15,1.15,0,0,1-1.21-1.21V7.55a1.19,1.19,0,0,1,.34-.88,1.2,1.2,0,0,1,.87-.33h12.46a1.2,1.2,0,0,1,.87.33,1.19,1.19,0,0,1,.34.88V9.38a1.2,1.2,0,0,1-.33.87h0a1.2,1.2,0,0,1-.87.33h-3.83V23.5a1.16,1.16,0,0,1-1.21,1.21ZM301.28,7.34a.25.25,0,0,0-.17,0s0,.08,0,.17V9.38a.17.17,0,0,0,.21.21h4.85V23.5a.31.31,0,0,0,0,.17.28.28,0,0,0,.18,0h2.35a.25.25,0,0,0,.17,0,.31.31,0,0,0,0-.17V9.59h4.83c.12,0,.16,0,.17,0a.25.25,0,0,0,0-.17V7.55c0-.09,0-.14,0-.17s-.05,0-.17,0Z"/><path class="cls-5" d="M102.05,64.36l.16,0,1,.4c.15.06.23.15.23.26a.35.35,0,0,1-.07.2,4.29,4.29,0,0,1-1.62,1.46,4.48,4.48,0,0,1-2.14.52,4.55,4.55,0,0,1-2.24-.57,4.47,4.47,0,0,1-1.65-1.58,4.18,4.18,0,0,1-.6-2.17,4.08,4.08,0,0,1,.6-2.15,4.37,4.37,0,0,1,1.64-1.58,4.6,4.6,0,0,1,4.36-.06,4.55,4.55,0,0,1,1.64,1.44.32.32,0,0,1,.07.19c0,.12-.07.21-.22.27l-1,.4-.18,0a.35.35,0,0,1-.29-.16,3.15,3.15,0,0,0-1-.78,2.42,2.42,0,0,0-1.13-.28,2.64,2.64,0,0,0-1.34.36,2.85,2.85,0,0,0-1,1A2.6,2.6,0,0,0,97,62.91a2.63,2.63,0,0,0,.36,1.33,2.68,2.68,0,0,0,1,1,2.55,2.55,0,0,0,1.35.38,2.58,2.58,0,0,0,1.17-.28,2.73,2.73,0,0,0,.94-.78A.38.38,0,0,1,102.05,64.36Z"/><path class="cls-5" d="M106.13,66.78a3.27,3.27,0,0,1-1.23-1.19,3.14,3.14,0,0,1,0-3.27,3.25,3.25,0,0,1,1.24-1.2,3.42,3.42,0,0,1,1.7-.44,3.51,3.51,0,0,1,1.71.44,3.43,3.43,0,0,1,1.25,1.2,3,3,0,0,1,.46,1.63,3,3,0,0,1-.46,1.63,3.51,3.51,0,0,1-3,1.64A3.46,3.46,0,0,1,106.13,66.78Zm.84-4.37a1.84,1.84,0,0,0-.63.64,1.87,1.87,0,0,0-.22.9,1.83,1.83,0,0,0,.22.91,1.59,1.59,0,0,0,.62.64,1.69,1.69,0,0,0,.88.24,1.63,1.63,0,0,0,.87-.24,1.66,1.66,0,0,0,.62-.64,1.92,1.92,0,0,0,.23-.91,1.82,1.82,0,0,0-.22-.9,1.73,1.73,0,0,0-.62-.64,1.78,1.78,0,0,0-1.75,0Z"/><path class="cls-5" d="M116.38,60.78a.34.34,0,0,1,.09.26v1c0,.2-.11.32-.34.34a2.17,2.17,0,0,0-.73.18,2,2,0,0,0-.66.47,1.83,1.83,0,0,0-.41,1.3v2.43a.33.33,0,0,1-.09.25.35.35,0,0,1-.25.09h-1a.31.31,0,0,1-.34-.34V61.14a.31.31,0,0,1,.34-.34h1a.35.35,0,0,1,.25.09.33.33,0,0,1,.09.25v.49a2.15,2.15,0,0,1,.81-.66,2.92,2.92,0,0,1,1-.27A.27.27,0,0,1,116.38,60.78Z"/><path class="cls-5" d="M119.08,60.89a.33.33,0,0,1,.09.25v.29a1.81,1.81,0,0,1,.77-.54,2.94,2.94,0,0,1,1.14-.23,3.11,3.11,0,0,1,1.66.43,2.93,2.93,0,0,1,1.11,1.18,3.69,3.69,0,0,1,.38,1.67,3.62,3.62,0,0,1-.38,1.66,2.84,2.84,0,0,1-1.08,1.17,3.25,3.25,0,0,1-1.69.44A2.71,2.71,0,0,1,120,67a1.93,1.93,0,0,1-.78-.57v2.33a.35.35,0,0,1-.09.25.33.33,0,0,1-.25.09h-1a.33.33,0,0,1-.25-.09.35.35,0,0,1-.09-.25V61.14a.31.31,0,0,1,.34-.34h1A.33.33,0,0,1,119.08,60.89Zm.5,4.33a1.84,1.84,0,0,0,2.5,0,2,2,0,0,0,0-2.56,1.64,1.64,0,0,0-1.24-.49,1.71,1.71,0,0,0-1.26.47,1.78,1.78,0,0,0-.46,1.3A1.73,1.73,0,0,0,119.58,65.22Z"/><path class="cls-5" d="M127,66.78a3.23,3.23,0,0,1-1.24-1.19,3.14,3.14,0,0,1,0-3.27,3.32,3.32,0,0,1,1.24-1.2,3.42,3.42,0,0,1,1.7-.44,3.48,3.48,0,0,1,3,1.64,3.15,3.15,0,0,1,0,3.26,3.33,3.33,0,0,1-1.25,1.19,3.36,3.36,0,0,1-1.71.45A3.42,3.42,0,0,1,127,66.78Zm.83-4.37a1.73,1.73,0,0,0-.62.64,1.77,1.77,0,0,0-.23.9,1.83,1.83,0,0,0,.22.91,1.66,1.66,0,0,0,.62.64,1.69,1.69,0,0,0,.88.24,1.63,1.63,0,0,0,.87-.24,1.66,1.66,0,0,0,.62-.64,1.93,1.93,0,0,0,0-1.81,1.73,1.73,0,0,0-.62-.64,1.78,1.78,0,0,0-1.75,0Z"/><path class="cls-5" d="M137.26,60.78a.34.34,0,0,1,.09.26v1c0,.2-.11.32-.34.34a2.17,2.17,0,0,0-.73.18,2,2,0,0,0-.66.47,1.88,1.88,0,0,0-.41,1.3v2.43a.33.33,0,0,1-.09.25.35.35,0,0,1-.25.09h-1a.31.31,0,0,1-.34-.34V61.14a.31.31,0,0,1,.34-.34h1a.35.35,0,0,1,.25.09.33.33,0,0,1,.09.25v.49A2.15,2.15,0,0,1,136,61a2.92,2.92,0,0,1,1-.27A.27.27,0,0,1,137.26,60.78Z"/><path class="cls-5" d="M143.1,67a.33.33,0,0,1-.09-.25v-.29a1.77,1.77,0,0,1-.76.54,2.94,2.94,0,0,1-1.14.23,3.18,3.18,0,0,1-1.68-.43,2.75,2.75,0,0,1-1.1-1.19,3.63,3.63,0,0,1-.37-1.65,3.51,3.51,0,0,1,.38-1.67,2.86,2.86,0,0,1,1.09-1.17,3.14,3.14,0,0,1,1.68-.44,2.7,2.7,0,0,1,1.12.22,1.8,1.8,0,0,1,.78.57v-.31a.33.33,0,0,1,.09-.25.35.35,0,0,1,.25-.09h1a.37.37,0,0,1,.25.09.33.33,0,0,1,.09.25v5.59a.33.33,0,0,1-.09.25.37.37,0,0,1-.25.09h-1A.35.35,0,0,1,143.1,67Zm-.5-4.33a1.84,1.84,0,0,0-2.5,0,1.78,1.78,0,0,0-.47,1.29,1.76,1.76,0,0,0,.48,1.27,1.88,1.88,0,0,0,2.51,0,1.82,1.82,0,0,0,.46-1.29A1.74,1.74,0,0,0,142.6,62.65Z"/><path class="cls-5" d="M147.8,66.79a3.37,3.37,0,0,1-1.24-1.19,3,3,0,0,1-.47-1.64,3.1,3.1,0,0,1,.45-1.63,3.46,3.46,0,0,1,1.26-1.2,3.41,3.41,0,0,1,1.7-.43,3.57,3.57,0,0,1,1.64.38,3.4,3.4,0,0,1,1.24,1.12.32.32,0,0,1,.07.18c0,.13-.07.22-.23.28l-.9.35a.42.42,0,0,1-.16,0,.39.39,0,0,1-.29-.19,1.71,1.71,0,0,0-1.37-.67,1.66,1.66,0,0,0-1.23.5,1.78,1.78,0,0,0-.48,1.27,1.82,1.82,0,0,0,.22.9,1.59,1.59,0,0,0,.62.64,1.72,1.72,0,0,0,.88.23,1.68,1.68,0,0,0,1.4-.67.41.41,0,0,1,.31-.17.32.32,0,0,1,.16,0l.82.32c.15.06.23.15.23.27a.32.32,0,0,1-.06.17,3.09,3.09,0,0,1-2.86,1.54A3.38,3.38,0,0,1,147.8,66.79Z"/><path class="cls-5" d="M155.39,59.87a.9.9,0,0,1-.66.27,1,1,0,0,1-.68-.27.91.91,0,0,1-.28-.66.88.88,0,0,1,.28-.64,1,1,0,0,1,.68-.27.9.9,0,0,1,.66.27.84.84,0,0,1,.28.64A.87.87,0,0,1,155.39,59.87ZM154,67a.33.33,0,0,1-.09-.25V61.15a.35.35,0,0,1,.09-.25.33.33,0,0,1,.25-.09h1a.31.31,0,0,1,.34.34v5.58a.33.33,0,0,1-.09.25.35.35,0,0,1-.25.09h-1A.33.33,0,0,1,154,67Z"/><path class="cls-5" d="M158.67,66.78a3.27,3.27,0,0,1-1.23-1.19,3.14,3.14,0,0,1,0-3.27,3.25,3.25,0,0,1,1.24-1.2,3.42,3.42,0,0,1,1.7-.44,3.51,3.51,0,0,1,1.71.44,3.43,3.43,0,0,1,1.25,1.2A3,3,0,0,1,163.8,64a3,3,0,0,1-.46,1.63,3.51,3.51,0,0,1-3,1.64A3.46,3.46,0,0,1,158.67,66.78Zm.84-4.37a1.76,1.76,0,0,0-.63.64,1.87,1.87,0,0,0-.22.9,1.83,1.83,0,0,0,.22.91,1.59,1.59,0,0,0,.62.64,1.69,1.69,0,0,0,.88.24,1.63,1.63,0,0,0,.87-.24,1.66,1.66,0,0,0,.62-.64,1.92,1.92,0,0,0,.23-.91,1.82,1.82,0,0,0-.22-.9,1.73,1.73,0,0,0-.62-.64,1.78,1.78,0,0,0-1.75,0ZM161,58.29l.17.05.83.34q.21.07.21.24a.29.29,0,0,1-.15.23l-1.12.81a.75.75,0,0,1-.43.13h-.58a.41.41,0,0,1-.21-.05.19.19,0,0,1-.08-.15.33.33,0,0,1,.09-.22l1-1.22A.33.33,0,0,1,161,58.29Z"/><path class="cls-5" d="M170.43,61.36a3,3,0,0,1,.6,2v3.36a.33.33,0,0,1-.09.25.35.35,0,0,1-.25.09h-1.06a.33.33,0,0,1-.25-.09.3.3,0,0,1-.1-.25V63.37c0-.85-.4-1.27-1.2-1.27a1.12,1.12,0,0,0-.88.4,1.77,1.77,0,0,0-.32,1.25v3a.33.33,0,0,1-.09.25.35.35,0,0,1-.25.09h-1a.31.31,0,0,1-.34-.34V61.14a.31.31,0,0,1,.34-.34h1a.35.35,0,0,1,.25.09.33.33,0,0,1,.09.25v.22a2.08,2.08,0,0,1,.77-.49,2.51,2.51,0,0,1,.9-.19A2.38,2.38,0,0,1,170.43,61.36Z"/><path class="cls-5" d="M181,67a.33.33,0,0,1-.09-.25v-.29a1.77,1.77,0,0,1-.76.54,2.94,2.94,0,0,1-1.14.23,3.18,3.18,0,0,1-1.68-.43,2.73,2.73,0,0,1-1.09-1.19,3.52,3.52,0,0,1-.38-1.65,3.63,3.63,0,0,1,.38-1.67,2.93,2.93,0,0,1,1.09-1.17,3.14,3.14,0,0,1,1.68-.44,2.78,2.78,0,0,1,1.13.22,1.83,1.83,0,0,1,.77.57V58.79a.31.31,0,0,1,.34-.34h1a.31.31,0,0,1,.34.34v7.94a.33.33,0,0,1-.09.25.35.35,0,0,1-.25.09h-1A.35.35,0,0,1,181,67Zm-.49-4.33a1.66,1.66,0,0,0-1.25-.49,1.64,1.64,0,0,0-1.26.49,1.77,1.77,0,0,0-.46,1.29,1.8,1.8,0,0,0,.47,1.27,1.88,1.88,0,0,0,2.51,0,2,2,0,0,0,0-2.58Z"/><path class="cls-5" d="M185.8,66.9a3.13,3.13,0,0,1-1.29-1A3.05,3.05,0,0,1,184,64a3.21,3.21,0,0,1,.45-1.71,3,3,0,0,1,1.23-1.15,3.65,3.65,0,0,1,1.73-.4,3.43,3.43,0,0,1,1.58.37,3.06,3.06,0,0,1,1.2,1.06,2.48,2.48,0,0,1,.4.89,5.09,5.09,0,0,1,.09,1,.65.65,0,0,1-.12.4.45.45,0,0,1-.36.16h-4.5a1.2,1.2,0,0,0,.63.86,2.28,2.28,0,0,0,1.88.14,1.79,1.79,0,0,0,.59-.39.45.45,0,0,1,.28-.12.35.35,0,0,1,.2.07l.74.43a.29.29,0,0,1,.18.25.42.42,0,0,1-.09.22,3.46,3.46,0,0,1-2.7,1.17A3.9,3.9,0,0,1,185.8,66.9Zm.4-4.37a1.2,1.2,0,0,0-.5.86h3.13a1.17,1.17,0,0,0-.23-.58,1.48,1.48,0,0,0-.51-.45,1.58,1.58,0,0,0-.74-.17A1.85,1.85,0,0,0,186.2,62.53Z"/><path class="cls-5" d="M197.54,64.73a1.27,1.27,0,0,0,.16.7.68.68,0,0,0,.62.24h.08c.24,0,.35.11.35.33v.75a.42.42,0,0,1-.08.26.39.39,0,0,1-.25.11H198a4.24,4.24,0,0,1-1.2-.13,1.21,1.21,0,0,1-.68-.45,1.59,1.59,0,0,1-.25-1V62.19h-.43a.35.35,0,0,1-.25-.09.33.33,0,0,1-.09-.25V61a.33.33,0,0,1,.09-.25.35.35,0,0,1,.25-.09h.43V59.36a.35.35,0,0,1,.09-.25.33.33,0,0,1,.25-.09h1a.33.33,0,0,1,.25.09.35.35,0,0,1,.09.25V60.7h.92a.35.35,0,0,1,.25.09.33.33,0,0,1,.09.25v.81a.33.33,0,0,1-.09.25.35.35,0,0,1-.25.09h-.92Z"/><path class="cls-5" d="M201.66,66.9a3.13,3.13,0,0,1-1.29-1,3.05,3.05,0,0,1-.56-1.91,3.21,3.21,0,0,1,.45-1.71,3,3,0,0,1,1.23-1.15,3.7,3.7,0,0,1,1.73-.4,3.4,3.4,0,0,1,1.58.37A3.16,3.16,0,0,1,206,62.13a2.89,2.89,0,0,1,.4.89,5.09,5.09,0,0,1,.09,1,.66.66,0,0,1-.13.4.43.43,0,0,1-.35.16h-4.51a1.25,1.25,0,0,0,.63.86,2.15,2.15,0,0,0,1.08.28,2.08,2.08,0,0,0,.8-.14,1.79,1.79,0,0,0,.59-.39.45.45,0,0,1,.28-.12.31.31,0,0,1,.2.07l.75.43a.29.29,0,0,1,.18.25.42.42,0,0,1-.09.22,3.47,3.47,0,0,1-2.71,1.17A3.9,3.9,0,0,1,201.66,66.9Zm.41-4.37a1.24,1.24,0,0,0-.51.86h3.13a1.15,1.15,0,0,0-.22-.58,1.43,1.43,0,0,0-.52-.45,1.58,1.58,0,0,0-.74-.17A1.82,1.82,0,0,0,202.07,62.53Z"/><path class="cls-5" d="M209.3,66.79a3.4,3.4,0,0,1-1.25-1.19,3.12,3.12,0,0,1-.47-1.64,3,3,0,0,1,.46-1.63,3.35,3.35,0,0,1,1.25-1.2,3.41,3.41,0,0,1,1.7-.43,3.57,3.57,0,0,1,1.64.38,3.43,3.43,0,0,1,1.25,1.12.38.38,0,0,1,.06.18.29.29,0,0,1-.22.28l-.91.35a.42.42,0,0,1-.16,0,.39.39,0,0,1-.29-.19,1.71,1.71,0,0,0-1.37-.67,1.67,1.67,0,0,0-1.23.5,1.78,1.78,0,0,0-.48,1.27,1.82,1.82,0,0,0,.22.9,1.66,1.66,0,0,0,.62.64,1.72,1.72,0,0,0,.88.23,1.68,1.68,0,0,0,1.4-.67.43.43,0,0,1,.31-.17.32.32,0,0,1,.16,0l.82.32c.15.06.23.15.23.27a.32.32,0,0,1-.06.17A3.09,3.09,0,0,1,211,67.23,3.34,3.34,0,0,1,209.3,66.79Z"/><path class="cls-5" d="M220.53,61.36a3,3,0,0,1,.6,2v3.36A.33.33,0,0,1,221,67a.35.35,0,0,1-.25.09h-1.06a.37.37,0,0,1-.26-.09.33.33,0,0,1-.09-.25V63.37c0-.85-.4-1.27-1.21-1.27a1.09,1.09,0,0,0-.87.4,1.77,1.77,0,0,0-.32,1.25v3a.33.33,0,0,1-.09.25.37.37,0,0,1-.26.09h-1a.31.31,0,0,1-.34-.34V61.14a.31.31,0,0,1,.34-.34h1a.37.37,0,0,1,.26.09.33.33,0,0,1,.09.25v.22a2.08,2.08,0,0,1,.77-.49,2.46,2.46,0,0,1,.9-.19A2.4,2.4,0,0,1,220.53,61.36Z"/><path class="cls-5" d="M224.19,66.78A3.37,3.37,0,0,1,223,65.59a3.2,3.2,0,0,1,0-3.27,3.35,3.35,0,0,1,1.25-1.2,3.39,3.39,0,0,1,1.7-.44,3.51,3.51,0,0,1,1.71.44,3.43,3.43,0,0,1,1.25,1.2,3.09,3.09,0,0,1,0,3.26,3.3,3.3,0,0,1-1.24,1.19,3.41,3.41,0,0,1-1.71.45A3.46,3.46,0,0,1,224.19,66.78Zm.84-4.37a1.68,1.68,0,0,0-.63.64,1.88,1.88,0,0,0-.23.9,1.84,1.84,0,0,0,.23.91,1.53,1.53,0,0,0,.62.64,1.71,1.71,0,0,0,2.37-.64,1.93,1.93,0,0,0,0-1.81,1.68,1.68,0,0,0-.63-.64,1.74,1.74,0,0,0-.87-.23A1.71,1.71,0,0,0,225,62.41Z"/><path class="cls-5" d="M230.81,67a.33.33,0,0,1-.09-.25V58.79a.35.35,0,0,1,.09-.25.33.33,0,0,1,.25-.09h1a.31.31,0,0,1,.34.34v7.94a.33.33,0,0,1-.09.25.35.35,0,0,1-.25.09h-1A.33.33,0,0,1,230.81,67Z"/><path class="cls-5" d="M235.46,66.78a3.3,3.3,0,0,1-1.24-1.19,3.14,3.14,0,0,1,0-3.27,3.32,3.32,0,0,1,1.24-1.2,3.52,3.52,0,0,1,3.41,0,3.38,3.38,0,0,1,1.26,1.2,3.15,3.15,0,0,1,0,3.26,3.33,3.33,0,0,1-1.25,1.19,3.36,3.36,0,0,1-1.71.45A3.45,3.45,0,0,1,235.46,66.78Zm.84-4.37a1.68,1.68,0,0,0-.63.64,1.88,1.88,0,0,0-.23.9,1.83,1.83,0,0,0,.22.91,1.66,1.66,0,0,0,.62.64,1.69,1.69,0,0,0,.88.24,1.63,1.63,0,0,0,.87-.24,1.68,1.68,0,0,0,.63-.64,1.91,1.91,0,0,0,.22-.91,1.82,1.82,0,0,0-.22-.9,1.66,1.66,0,0,0-.62-.64,1.78,1.78,0,0,0-.88-.23A1.7,1.7,0,0,0,236.3,62.41Z"/><path class="cls-5" d="M248.33,60.89a.33.33,0,0,1,.09.25v5.37a2.79,2.79,0,0,1-.84,2.15,3.34,3.34,0,0,1-2.33.77,4.81,4.81,0,0,1-2.73-.75.31.31,0,0,1-.16-.25.42.42,0,0,1,.08-.22l.45-.65a.33.33,0,0,1,.26-.16.4.4,0,0,1,.22.07,2.93,2.93,0,0,0,.82.37,3.22,3.22,0,0,0,.93.13c1.07,0,1.61-.48,1.61-1.46v-.1A2.67,2.67,0,0,1,245,67a3.6,3.6,0,0,1-1.73-.41,3,3,0,0,1-1.16-1.14,3.24,3.24,0,0,1-.4-1.59,3.13,3.13,0,0,1,.4-1.59,2.84,2.84,0,0,1,1.15-1.13,3.45,3.45,0,0,1,1.74-.43,2.67,2.67,0,0,1,1.76.56v-.1a.33.33,0,0,1,.09-.25.35.35,0,0,1,.25-.09h1A.35.35,0,0,1,248.33,60.89ZM246,65.31a1.68,1.68,0,0,0,.62-.62,1.76,1.76,0,0,0,0-1.72,1.68,1.68,0,0,0-.62-.62,1.85,1.85,0,0,0-.88-.22,1.7,1.7,0,0,0-1.25.48,1.69,1.69,0,0,0,1.25,2.92A1.71,1.71,0,0,0,246,65.31Z"/><path class="cls-5" d="M250.28,67a.33.33,0,0,1-.09-.25V61.15a.35.35,0,0,1,.09-.25.33.33,0,0,1,.25-.09h1a.37.37,0,0,1,.26.09.35.35,0,0,1,.09.25v5.58a.33.33,0,0,1-.09.25.37.37,0,0,1-.26.09h-1A.33.33,0,0,1,250.28,67Zm1.61-8.69.17.05.83.34c.14,0,.2.13.2.24a.31.31,0,0,1-.14.23l-1.12.81a.77.77,0,0,1-.43.13h-.59a.41.41,0,0,1-.21-.05.18.18,0,0,1-.07-.15.33.33,0,0,1,.09-.22l1-1.22A.35.35,0,0,1,251.89,58.29Z"/><path class="cls-5" d="M258.54,67a.33.33,0,0,1-.09-.25v-.29a1.71,1.71,0,0,1-.76.54,2.94,2.94,0,0,1-1.14.23,3.18,3.18,0,0,1-1.68-.43,2.73,2.73,0,0,1-1.09-1.19,3.82,3.82,0,0,1,0-3.32,2.93,2.93,0,0,1,1.09-1.17,3.14,3.14,0,0,1,1.68-.44,2.75,2.75,0,0,1,1.13.22,1.83,1.83,0,0,1,.77.57v-.31a.33.33,0,0,1,.09-.25.37.37,0,0,1,.26-.09h1a.31.31,0,0,1,.34.34v5.59a.31.31,0,0,1-.34.34h-1A.37.37,0,0,1,258.54,67Zm-.49-4.33a1.84,1.84,0,0,0-2.5,0,1.74,1.74,0,0,0-.47,1.29,1.76,1.76,0,0,0,.48,1.27,1.64,1.64,0,0,0,1.24.49,1.67,1.67,0,0,0,1.26-.47,2,2,0,0,0,0-2.58Z"/><path class="cls-5" d="M272.75,58.83a.3.3,0,0,1,.1.25v7.65a.3.3,0,0,1-.1.25.33.33,0,0,1-.25.09h-1.1a.31.31,0,0,1-.34-.34v-2.9h-3.92v2.9a.31.31,0,0,1-.34.34h-1.1a.37.37,0,0,1-.26-.09.33.33,0,0,1-.09-.25V59.08a.33.33,0,0,1,.09-.25.38.38,0,0,1,.26-.1h1.1a.34.34,0,0,1,.25.1.33.33,0,0,1,.09.25v3.19h3.92V59.08a.33.33,0,0,1,.09-.25.34.34,0,0,1,.25-.1h1.1A.34.34,0,0,1,272.75,58.83Z"/><path class="cls-5" d="M276,66.78a3.37,3.37,0,0,1-1.24-1.19,3.2,3.2,0,0,1,0-3.27,3.35,3.35,0,0,1,1.25-1.2,3.39,3.39,0,0,1,1.7-.44,3.51,3.51,0,0,1,1.71.44,3.43,3.43,0,0,1,1.25,1.2,3,3,0,0,1,.46,1.63,3.14,3.14,0,0,1-.46,1.63,3.51,3.51,0,0,1-3,1.64A3.46,3.46,0,0,1,276,66.78Zm.84-4.37a1.68,1.68,0,0,0-.63.64,1.88,1.88,0,0,0-.23.9,1.84,1.84,0,0,0,.23.91,1.59,1.59,0,0,0,.62.64,1.66,1.66,0,0,0,.88.24,1.63,1.63,0,0,0,.87-.24,1.66,1.66,0,0,0,.62-.64,1.93,1.93,0,0,0,0-1.81,1.73,1.73,0,0,0-.62-.64,1.78,1.78,0,0,0-1.75,0Z"/><path class="cls-5" d="M291.89,61.38a2.82,2.82,0,0,1,.65,2v3.36a.31.31,0,0,1-.34.34h-1a.31.31,0,0,1-.34-.34V63.37a1.24,1.24,0,0,0-.33-1,1.21,1.21,0,0,0-.89-.31,1.1,1.1,0,0,0-.85.37,1.69,1.69,0,0,0-.35,1.11v3.15a.31.31,0,0,1-.34.34h-1a.31.31,0,0,1-.34-.34V63.37a1.28,1.28,0,0,0-.32-1,1.21,1.21,0,0,0-.89-.31,1.08,1.08,0,0,0-.87.39,1.9,1.9,0,0,0-.34,1.26v3a.3.3,0,0,1-.34.34h-1a.35.35,0,0,1-.25-.09.33.33,0,0,1-.09-.25V61.14a.33.33,0,0,1,.09-.25.35.35,0,0,1,.25-.09h1a.35.35,0,0,1,.25.09.33.33,0,0,1,.09.25v.23a2.77,2.77,0,0,1,.8-.49,2.26,2.26,0,0,1,.85-.2,2.44,2.44,0,0,1,2,.86,2.45,2.45,0,0,1,.88-.63,2.87,2.87,0,0,1,1.14-.23A2.58,2.58,0,0,1,291.89,61.38Z"/><path class="cls-5" d="M295.86,66.9a3.13,3.13,0,0,1-1.29-1A3.05,3.05,0,0,1,294,64a3.21,3.21,0,0,1,.45-1.71,3,3,0,0,1,1.23-1.15,3.68,3.68,0,0,1,1.73-.4,3.43,3.43,0,0,1,1.58.37,3.16,3.16,0,0,1,1.21,1.06,2.63,2.63,0,0,1,.39.89,4.4,4.4,0,0,1,.1,1,.66.66,0,0,1-.13.4.43.43,0,0,1-.35.16h-4.51a1.22,1.22,0,0,0,.63.86,2.28,2.28,0,0,0,1.88.14,1.79,1.79,0,0,0,.59-.39.45.45,0,0,1,.28-.12.32.32,0,0,1,.2.07l.74.43c.13.07.19.15.19.25a.42.42,0,0,1-.09.22,3.48,3.48,0,0,1-2.71,1.17A3.9,3.9,0,0,1,295.86,66.9Zm.4-4.37a1.23,1.23,0,0,0-.5.86h3.13a1.25,1.25,0,0,0-.22-.58,1.52,1.52,0,0,0-.52-.45,1.58,1.58,0,0,0-.74-.17A1.87,1.87,0,0,0,296.26,62.53Z"/><path class="cls-5" d="M303.43,66.52a1.82,1.82,0,0,1-.35,1.09,2.07,2.07,0,0,1-.94.7.22.22,0,0,1-.13,0,.35.35,0,0,1-.31-.23.33.33,0,0,1,0-.14c0-.1.08-.2.23-.28a1,1,0,0,0,.48-.54.78.78,0,0,1-.61-.27.88.88,0,0,1-.24-.63.92.92,0,0,1,.26-.65.9.9,0,0,1,.66-.27,1,1,0,0,1,.6.2,1,1,0,0,1,.35.55A1.91,1.91,0,0,1,303.43,66.52Z"/><path class="cls-5" d="M307.82,65.87a.4.4,0,0,1,.08-.21l.57-.82a.28.28,0,0,1,.25-.16.35.35,0,0,1,.22.08,5.73,5.73,0,0,0,1.24.61,4,4,0,0,0,1.27.24,2.06,2.06,0,0,0,1.12-.27.75.75,0,0,0,.42-.65c0-.37-.29-.64-.87-.8l-1-.21a8.92,8.92,0,0,1-1.61-.38,3.2,3.2,0,0,1-1.14-.72,1.9,1.9,0,0,1-.56-1.45,2.12,2.12,0,0,1,.93-1.89,4.15,4.15,0,0,1,2.38-.63,5.31,5.31,0,0,1,1.61.22,5.51,5.51,0,0,1,1.4.69.31.31,0,0,1,.08.48l-.6.82a.3.3,0,0,1-.25.16.34.34,0,0,1-.23-.08,5.08,5.08,0,0,0-1-.49,3.6,3.6,0,0,0-1.05-.17,2.25,2.25,0,0,0-1,.21.66.66,0,0,0-.43.61.52.52,0,0,0,.22.42,1.29,1.29,0,0,0,.54.25c.15.05.45.12.9.22l.41.08a10.37,10.37,0,0,1,1.64.43,2.64,2.64,0,0,1,1,.72,2.13,2.13,0,0,1,.46,1.46,2.27,2.27,0,0,1-.88,1.92,3.93,3.93,0,0,1-2.44.67,5.62,5.62,0,0,1-3.5-1.09A.34.34,0,0,1,307.82,65.87Z"/><path class="cls-5" d="M317.13,66.89a.94.94,0,0,1-1.32,0,.83.83,0,0,1-.28-.64.86.86,0,0,1,.28-.64.94.94,0,0,1,1.32,0,.86.86,0,0,1,.28.64A.83.83,0,0,1,317.13,66.89Z"/><path class="cls-5" d="M317.9,67a.21.21,0,0,1-.08-.17.46.46,0,0,1,.06-.18L322,58.92c.07-.12.15-.19.24-.19s.18.07.24.19l4.11,7.74a.46.46,0,0,1,.06.18.21.21,0,0,1-.08.17.34.34,0,0,1-.22.06h-1.24a.43.43,0,0,1-.4-.25l-.53-1h-3.89l-.52,1a.4.4,0,0,1-.4.25h-1.25A.38.38,0,0,1,317.9,67Zm5.41-2.75-1.07-2.18-1.06,2.18Z"/><path class="cls-5" d="M328.75,66.89a.94.94,0,0,1-1.32,0,.83.83,0,0,1-.28-.64.86.86,0,0,1,.28-.64.94.94,0,0,1,1.32,0,.86.86,0,0,1,.28.64A.83.83,0,0,1,328.75,66.89Z"/></svg>