<svg xmlns="http://www.w3.org/2000/svg" viewBox="0 0 982.68 337.32"><defs><style>.cls-1{fill:#fff;}</style></defs><g id="Layer_2" data-name="Layer 2"><g id="Logo"><rect class="cls-1" x="357.5" y="26.93" width="3" height="283.46"/><path class="cls-1" d="M578.84,83.62H422.61a6.92,6.92,0,0,0-6.92,6.93v27a6.92,6.92,0,0,0,6.92,6.93H480.3v122a6.91,6.91,0,0,0,6.91,6.92h27a6.92,6.92,0,0,0,6.92-6.92v-122h57.68a6.93,6.93,0,0,0,6.93-6.93v-27A6.93,6.93,0,0,0,578.84,83.62Z"/><rect class="cls-1" x="621.98" y="83.28" width="40.96" height="170.14" rx="5.67"/><path class="cls-1" d="M792.61,212.54H739.16V89.91a6.29,6.29,0,0,0-6.29-6.29h-28.3a6.29,6.29,0,0,0-6.29,6.29V247.13a6.29,6.29,0,0,0,6.29,6.29h88a6.29,6.29,0,0,0,6.29-6.29v-28.3A6.29,6.29,0,0,0,792.61,212.54Z"/><path class="cls-1" d="M897.61,83.28a85.07,85.07,0,1,0,85.07,85.07A85.07,85.07,0,0,0,897.61,83.28Zm0,129.18a44.11,44.11,0,1,1,44.11-44.11A44.11,44.11,0,0,1,897.61,212.46Z"/><path class="cls-1" d="M285.42,72,167.93,4.48a33.68,33.68,0,0,0-33.56,0L16.88,72A33.66,33.66,0,0,0,0,101.22V236.1a33.66,33.66,0,0,0,16.88,29.18l117.49,67.56a33.68,33.68,0,0,0,33.56,0l117.49-67.56A33.66,33.66,0,0,0,302.3,236.1V101.22A33.66,33.66,0,0,0,285.42,72Zm-49.23,55a6.92,6.92,0,0,1-6.93,6.92H171.58V256a6.91,6.91,0,0,1-6.92,6.91h-27a6.91,6.91,0,0,1-6.92-6.91v-122H73A6.92,6.92,0,0,1,66.11,127V100A6.93,6.93,0,0,1,73,93.08H229.26a6.93,6.93,0,0,1,6.93,6.93Z"/></g><g id="Text"><path class="cls-1" d="M437.64,311.12l0-15.62-7.67,12.87h-2.71l-7.63-12.54v15.29H414v-26h5l9.75,16.18,9.6-16.18h4.94l.08,26Z"/><path class="cls-1" d="M469.23,291.11v20h-5.51v-2.38a7.74,7.74,0,0,1-2.75,2,8.65,8.65,0,0,1-3.46.69,8.54,8.54,0,0,1-6.25-2.27q-2.31-2.26-2.31-6.74v-11.3h5.81v10.45q0,4.83,4.05,4.83a4.37,4.37,0,0,0,3.35-1.35,5.75,5.75,0,0,0,1.26-4v-9.89Z"/><path class="cls-1" d="M474.62,283.52h5.8v27.6h-5.8Z"/><path class="cls-1" d="M500.18,310.15a5.94,5.94,0,0,1-2.11,1,10.62,10.62,0,0,1-2.62.32,7.76,7.76,0,0,1-5.52-1.83,7,7,0,0,1-1.95-5.35V296h-3.09v-4.47H488v-4.87h5.8v4.87h5V296h-5v8.14a2.76,2.76,0,0,0,.65,2,2.4,2.4,0,0,0,1.84.68,3.68,3.68,0,0,0,2.34-.74Z"/><path class="cls-1" d="M503.75,287.39a3.15,3.15,0,0,1,0-4.62,3.68,3.68,0,0,1,2.6-.93,3.76,3.76,0,0,1,2.61.9,2.85,2.85,0,0,1,1,2.23,3.18,3.18,0,0,1-1,2.4,4.08,4.08,0,0,1-5.21,0Zm-.3,3.72h5.8v20h-5.8Z"/><path class="cls-1" d="M525.58,285.08h6v26h-6Z"/><path class="cls-1" d="M555.55,293c1.52,1.49,2.29,3.7,2.29,6.62v11.46H552V300.55a5.19,5.19,0,0,0-1-3.55,3.82,3.82,0,0,0-3-1.17,4.6,4.6,0,0,0-3.5,1.36,5.6,5.6,0,0,0-1.3,4v9.9h-5.8v-20h5.54v2.34a7.74,7.74,0,0,1,2.86-1.95,10,10,0,0,1,3.76-.69A8.24,8.24,0,0,1,555.55,293Z"/><path class="cls-1" d="M582.57,291.11l-8.44,20h-6l-8.41-20h6l5.54,13.61L577,291.11Z"/><path class="cls-1" d="M603.89,302.75H588.75a4.73,4.73,0,0,0,1.93,2.94,6.41,6.41,0,0,0,3.8,1.08,7.69,7.69,0,0,0,2.77-.47,6.82,6.82,0,0,0,2.25-1.47l3.09,3.35q-2.83,3.24-8.26,3.24a13.07,13.07,0,0,1-6-1.32,9.67,9.67,0,0,1-4-3.67,10.1,10.1,0,0,1-1.41-5.32,10.23,10.23,0,0,1,1.39-5.3,9.82,9.82,0,0,1,3.83-3.68,11.29,11.29,0,0,1,5.45-1.32,11.17,11.17,0,0,1,5.32,1.26,9.27,9.27,0,0,1,3.74,3.63,10.78,10.78,0,0,1,1.36,5.49C604,301.26,604,301.78,603.89,302.75Zm-13.58-6.44a4.81,4.81,0,0,0-1.64,3.05h9.86a4.83,4.83,0,0,0-1.63-3,5,5,0,0,0-3.28-1.13A5,5,0,0,0,590.31,296.31Z"/><path class="cls-1" d="M616.22,291.55a10.55,10.55,0,0,1,4.07-.74v5.36c-.64-.05-1.07-.08-1.3-.08a5.31,5.31,0,0,0-3.9,1.4,5.6,5.6,0,0,0-1.42,4.18v9.45h-5.8v-20h5.54v2.64A6.5,6.5,0,0,1,616.22,291.55Z"/><path class="cls-1" d="M625.69,310.8a12.85,12.85,0,0,1-3.8-1.54l1.94-4.17a12.18,12.18,0,0,0,3.23,1.4,13.61,13.61,0,0,0,3.72.54q3.69,0,3.69-1.83a1.28,1.28,0,0,0-1-1.22,15.09,15.09,0,0,0-3.09-.64,29.29,29.29,0,0,1-4-.85,6.22,6.22,0,0,1-2.77-1.71,4.89,4.89,0,0,1-1.17-3.5,5.5,5.5,0,0,1,1.09-3.37,7.06,7.06,0,0,1,3.2-2.28,13.58,13.58,0,0,1,5-.82,19.48,19.48,0,0,1,4.22.46,11.73,11.73,0,0,1,3.48,1.29l-1.93,4.13a11.52,11.52,0,0,0-5.77-1.49,5.83,5.83,0,0,0-2.79.52,1.53,1.53,0,0,0-.93,1.34,1.32,1.32,0,0,0,1,1.3,18.25,18.25,0,0,0,3.2.71,33.62,33.62,0,0,1,4,.87,6,6,0,0,1,2.72,1.69,4.85,4.85,0,0,1,1.15,3.43,5.26,5.26,0,0,1-1.12,3.31,7.22,7.22,0,0,1-3.25,2.25,14.6,14.6,0,0,1-5.08.8A19.35,19.35,0,0,1,625.69,310.8Z"/><path class="cls-1" d="M643.88,287.39a3.15,3.15,0,0,1,0-4.62,3.68,3.68,0,0,1,2.6-.93,3.76,3.76,0,0,1,2.61.9,2.85,2.85,0,0,1,1,2.23,3.18,3.18,0,0,1-1,2.4,4.08,4.08,0,0,1-5.21,0Zm-.3,3.72h5.8v20h-5.8Z"/><path class="cls-1" d="M658.63,310.1a9.87,9.87,0,0,1-3.93-3.67,10.74,10.74,0,0,1,0-10.64,9.85,9.85,0,0,1,3.93-3.66,12.82,12.82,0,0,1,11.33,0,9.83,9.83,0,0,1,3.9,3.66,10.74,10.74,0,0,1,0,10.64,9.85,9.85,0,0,1-3.9,3.67,12.82,12.82,0,0,1-11.33,0Zm9.33-5a6.37,6.37,0,0,0,0-8.07,4.8,4.8,0,0,0-3.66-1.51,4.86,4.86,0,0,0-3.68,1.51,6.34,6.34,0,0,0,0,8.07,4.89,4.89,0,0,0,3.68,1.51A4.83,4.83,0,0,0,668,305.15Z"/><path class="cls-1" d="M697.32,293q2.28,2.23,2.28,6.62v11.46h-5.8V300.55a5.24,5.24,0,0,0-1-3.55,3.83,3.83,0,0,0-3-1.17,4.6,4.6,0,0,0-3.5,1.36,5.6,5.6,0,0,0-1.3,4v9.9h-5.81v-20h5.55v2.34a7.74,7.74,0,0,1,2.86-1.95,10,10,0,0,1,3.76-.69A8.24,8.24,0,0,1,697.32,293Z"/><path class="cls-1" d="M724.56,302.75H709.42a4.74,4.74,0,0,0,1.94,2.94,6.4,6.4,0,0,0,3.79,1.08,7.66,7.66,0,0,0,2.77-.47,6.76,6.76,0,0,0,2.26-1.47l3.08,3.35c-1.88,2.16-4.64,3.24-8.26,3.24a13,13,0,0,1-6-1.32,9.67,9.67,0,0,1-4-3.67,10,10,0,0,1-1.42-5.32,10.24,10.24,0,0,1,1.4-5.3,9.82,9.82,0,0,1,3.83-3.68,11.89,11.89,0,0,1,10.77-.06,9.33,9.33,0,0,1,3.74,3.63,10.88,10.88,0,0,1,1.36,5.49Q724.68,301.29,724.56,302.75ZM711,296.31a4.77,4.77,0,0,0-1.64,3.05h9.86a4.84,4.84,0,0,0-1.64-3,4.91,4.91,0,0,0-3.27-1.13A5,5,0,0,0,711,296.31Z"/><path class="cls-1" d="M730.41,310.8a12.74,12.74,0,0,1-3.8-1.54l1.93-4.17a12.4,12.4,0,0,0,3.24,1.4,13.61,13.61,0,0,0,3.72.54c2.46,0,3.68-.61,3.68-1.83a1.27,1.27,0,0,0-1-1.22,15.09,15.09,0,0,0-3.09-.64,29,29,0,0,1-4.05-.85,6.22,6.22,0,0,1-2.77-1.71,4.85,4.85,0,0,1-1.18-3.5,5.51,5.51,0,0,1,1.1-3.37,7,7,0,0,1,3.2-2.28,13.58,13.58,0,0,1,5-.82,19.48,19.48,0,0,1,4.22.46,11.73,11.73,0,0,1,3.48,1.29l-1.94,4.13a11.45,11.45,0,0,0-5.76-1.49,5.83,5.83,0,0,0-2.79.52,1.53,1.53,0,0,0-.93,1.34,1.32,1.32,0,0,0,1,1.3,18.25,18.25,0,0,0,3.2.71,33.62,33.62,0,0,1,4,.87,6,6,0,0,1,2.71,1.69,4.81,4.81,0,0,1,1.16,3.43,5.32,5.32,0,0,1-1.12,3.31,7.22,7.22,0,0,1-3.25,2.25,14.6,14.6,0,0,1-5.08.8A19.35,19.35,0,0,1,730.41,310.8Z"/><path class="cls-1" d="M764.5,309.84a13,13,0,0,1-5.06-4.8,14,14,0,0,1,0-13.88,13,13,0,0,1,5.06-4.8,15,15,0,0,1,7.23-1.73,15.22,15.22,0,0,1,6.12,1.19,12.28,12.28,0,0,1,4.6,3.43l-3.87,3.57a8.31,8.31,0,0,0-6.55-3.05,8.63,8.63,0,0,0-4.31,1.06,7.44,7.44,0,0,0-3,2.95,9.31,9.31,0,0,0,0,8.63,7.4,7.4,0,0,0,3,3,8.63,8.63,0,0,0,4.31,1.06,8.29,8.29,0,0,0,6.55-3.09l3.87,3.58a12.14,12.14,0,0,1-4.62,3.46,15.34,15.34,0,0,1-6.13,1.19A15,15,0,0,1,764.5,309.84Z"/><path class="cls-1" d="M804.26,293q2.29,2.23,2.29,6.62v11.46h-5.8V300.55a5.24,5.24,0,0,0-1-3.55,3.84,3.84,0,0,0-3-1.17,4.58,4.58,0,0,0-3.49,1.36,5.6,5.6,0,0,0-1.31,4v9.9h-5.8v-27.6h5.8v9.67a7.7,7.7,0,0,1,2.8-1.77,10.06,10.06,0,0,1,3.57-.61A8.2,8.2,0,0,1,804.26,293Z"/><path class="cls-1" d="M831.51,302.75H816.37a4.7,4.7,0,0,0,1.94,2.94,6.38,6.38,0,0,0,3.79,1.08,7.66,7.66,0,0,0,2.77-.47,6.62,6.62,0,0,0,2.25-1.47l3.09,3.35c-1.88,2.16-4.64,3.24-8.26,3.24a13.1,13.1,0,0,1-6-1.32,9.71,9.71,0,0,1-4-3.67,10,10,0,0,1-1.42-5.32,10.24,10.24,0,0,1,1.4-5.3,9.75,9.75,0,0,1,3.83-3.68,11.89,11.89,0,0,1,10.77-.06,9.33,9.33,0,0,1,3.74,3.63,10.87,10.87,0,0,1,1.35,5.49C831.62,301.26,831.59,301.78,831.51,302.75Zm-13.57-6.44a4.77,4.77,0,0,0-1.64,3.05h9.86a4.84,4.84,0,0,0-1.64-3,4.91,4.91,0,0,0-3.27-1.13A5,5,0,0,0,817.94,296.31Z"/><path class="cls-1" d="M856.14,291.11v16.66q0,5.5-2.87,8.19t-8.37,2.67a20.93,20.93,0,0,1-5.5-.7,12.05,12.05,0,0,1-4.32-2.05l2.31-4.17a9.38,9.38,0,0,0,3.2,1.66,12.71,12.71,0,0,0,3.87.61,6.27,6.27,0,0,0,4.44-1.35,5.41,5.41,0,0,0,1.44-4.11v-.86a8.15,8.15,0,0,1-6.33,2.49,10.6,10.6,0,0,1-5-1.21,9.28,9.28,0,0,1-3.63-3.4,10.22,10.22,0,0,1,0-10.12A9.28,9.28,0,0,1,839,292a10.6,10.6,0,0,1,5-1.21,7.93,7.93,0,0,1,6.62,2.86v-2.56ZM848.94,304a5,5,0,0,0,0-7.1,5.33,5.33,0,0,0-3.78-1.36,5.39,5.39,0,0,0-3.79,1.36,5,5,0,0,0,0,7.1,5.39,5.39,0,0,0,3.79,1.36A5.33,5.33,0,0,0,848.94,304Z"/><path class="cls-1" d="M876.75,293c1.66,1.48,2.49,3.7,2.49,6.68v11.42h-5.43v-2.49c-1.09,1.86-3.13,2.79-6.1,2.79a9.48,9.48,0,0,1-4-.78,6,6,0,0,1-2.59-2.16,5.67,5.67,0,0,1-.89-3.13,5.22,5.22,0,0,1,2.1-4.39c1.4-1.06,3.57-1.6,6.49-1.6h4.62a3.72,3.72,0,0,0-1.16-2.92,5.09,5.09,0,0,0-3.46-1,10.25,10.25,0,0,0-3.14.5,8.42,8.42,0,0,0-2.62,1.36l-2.08-4a12.42,12.42,0,0,1,3.92-1.79,17.6,17.6,0,0,1,4.71-.63Q874.26,290.81,876.75,293Zm-5,13.8a3.8,3.8,0,0,0,1.64-2v-2.05h-4q-3.57,0-3.57,2.34a2.08,2.08,0,0,0,.87,1.77,4,4,0,0,0,2.4.65A5,5,0,0,0,871.8,306.82Z"/><path class="cls-1" d="M892.84,291.55a10.48,10.48,0,0,1,4.07-.74v5.36c-.65-.05-1.08-.08-1.3-.08a5.33,5.33,0,0,0-3.91,1.4,5.63,5.63,0,0,0-1.41,4.18v9.45h-5.81v-20H890v2.64A6.44,6.44,0,0,1,892.84,291.55Z"/><path class="cls-1" d="M914,310.73a13.86,13.86,0,0,1-4.63-2.18l2-4.54a14.11,14.11,0,0,0,4,2,15.17,15.17,0,0,0,4.62.74,7.34,7.34,0,0,0,3.79-.76,2.31,2.31,0,0,0,1.23-2,1.9,1.9,0,0,0-.73-1.54,5.46,5.46,0,0,0-1.86-1c-.75-.25-1.78-.52-3.07-.82a43,43,0,0,1-4.87-1.41,7.9,7.9,0,0,1-3.25-2.27,6.1,6.1,0,0,1-1.36-4.17,7.25,7.25,0,0,1,1.23-4.11,8.25,8.25,0,0,1,3.7-2.92,15.07,15.07,0,0,1,6-1.08,20,20,0,0,1,4.88.6,14.64,14.64,0,0,1,4.16,1.71l-1.86,4.57a14.53,14.53,0,0,0-7.21-2,6.71,6.71,0,0,0-3.74.82,2.47,2.47,0,0,0-1.21,2.15,2.09,2.09,0,0,0,1.39,2,21.31,21.31,0,0,0,4.26,1.29,42.62,42.62,0,0,1,4.88,1.41,8.1,8.1,0,0,1,3.25,2.23,6,6,0,0,1,1.36,4.13,7.14,7.14,0,0,1-1.25,4.08,8.38,8.38,0,0,1-3.74,2.92,15.2,15.2,0,0,1-6.06,1.08A21.21,21.21,0,0,1,914,310.73Z"/><path class="cls-1" d="M935.15,310.38a3.57,3.57,0,0,1-1-2.61,3.4,3.4,0,0,1,1-2.58,3.82,3.82,0,0,1,5.13,0,3.36,3.36,0,0,1,1,2.58,3.53,3.53,0,0,1-1,2.61,3.68,3.68,0,0,1-5.13,0Z"/><path class="cls-1" d="M964,305.54H951.93l-2.31,5.58h-6.18l11.61-26h6l11.65,26h-6.33Zm-1.9-4.58L958,291l-4.13,10Z"/><path class="cls-1" d="M975.77,310.38a3.57,3.57,0,0,1-1-2.61,3.4,3.4,0,0,1,1-2.58,3.83,3.83,0,0,1,5.14,0,3.4,3.4,0,0,1,1,2.58,3.57,3.57,0,0,1-1,2.61,3.7,3.7,0,0,1-5.14,0Z"/></g></g></svg>